<?xml version="1.0" encoding="iso-8859-1"?>
<!-- Generator: Adobe Illustrator 18.0.0, SVG Export Plug-In . SVG Version: 6.00 Build 0)  -->
<!DOCTYPE svg PUBLIC "-//W3C//DTD SVG 1.1//EN" "http://www.w3.org/Graphics/SVG/1.1/DTD/svg11.dtd">
<svg xmlns="http://www.w3.org/2000/svg" xmlns:xlink="http://www.w3.org/1999/xlink" version="1.1" id="Capa_1" x="0px" y="0px" viewBox="0 0 415.507 415.507" style="enable-background:new 0 0 415.507 415.507;" xml:space="preserve" width="512px" height="512px">
<g>
	<path d="M411.376,236.46c-0.016-0.245-0.045-0.488-0.09-0.73c0,0-11.292-60.716-11.355-60.926c-0.179-0.777-0.515-1.533-1.02-2.216   l-48.459-65.587c-4.673-6.124-11.333-7.751-17.727-7.751h-45.277c-4.866,0-10.498,1.553-14.188,4.183c-0.041,0.025,0.04-0.026,0,0   l-66.194,43.397l-15.765-20.76c-3.171-5.157-8.855-8.345-14.934-8.345c-3.093,0-6.145,0.828-8.827,2.395   c-8.338,4.874-11.161,15.625-6.295,23.966c0.128,0.218,0.27,0.429,0.423,0.629l27.049,35.237c3.238,4.778,8.612,7.673,14.495,7.673   c2.743,0,5.491-0.661,7.947-1.913c0.181-0.092-0.17,0.109,0,0l53.72-34.601v245.383c0,10.483,8.527,19.012,19.01,19.012   c10.485,0,19.016-8.528,19.016-19.012v-126.38l14.365,0.001v126.379c0,10.483,8.527,19.012,19.01,19.012   c10.485,0,19.016-8.528,19.016-19.012V172.531l11.754,15.906l9.37,50.552c0.758,9.036,8.345,16.056,17.449,16.056   c0.355,0,0.715-0.011,1.072-0.032c4.671-0.282,8.953-2.367,12.058-5.87C410.106,245.638,411.66,241.133,411.376,236.46z" fill="#00a0c4"/>
	<path d="M18.549,28.9c7.968,0,14.449-6.482,14.449-14.45C32.998,6.483,26.517,0,18.549,0C10.58,0,4.098,6.483,4.098,14.45   C4.098,22.418,10.58,28.9,18.549,28.9z" fill="#00a0c4"/>
	<path d="M222.418,334.215c-1.062-1.273-2.603-2.05-4.257-2.147l-21.34-1.243c-4.156-10.649-9.812-17.755-15.841-22.472   c12.9-1.362,25.043-7.427,33.859-17.216c2.218-2.463,2.02-6.256-0.442-8.474c-2.463-2.218-6.256-2.021-8.474,0.442   c-8.767,9.734-21.778,14.705-34.847,13.309l-92.596-12.717l-1.75-5.689l13.72-39.084c0.815-2.324,0.129-4.91-1.732-6.522   c-1.862-1.612-4.521-1.923-6.703-0.785l-8.53,4.449l0.421-5.58c0.179-2.379-1.068-4.639-3.177-5.754   c-2.108-1.118-4.679-0.878-6.545,0.609l-9.378,7.47c-2.79-1.559-5.963-2.407-9.199-2.407c-3.397,0-6.674,0.903-9.541,2.594   l-19.604-8.949c-2.618-1.192-5.709-0.366-7.377,1.974c-0.695,0.975-1.062,2.099-1.11,3.229   c-6.137,19.273,2.295,38.608,20.131,46.776l12.118,62.351L24.84,352.15c-0.667,0.598-1.192,1.337-1.537,2.164L6.111,395.599   c-0.77,1.852-0.565,3.967,0.547,5.636c1.113,1.669,2.986,2.671,4.992,2.671h6.389c2.199,0,4.223-1.203,5.272-3.137l16.233-29.889   l10.387-8.097l6.815,28.814c0.385,1.628,1.433,3.022,2.89,3.845l32.051,18.091c0.927,0.522,1.941,0.774,2.946,0.774   c1.742,0,3.455-0.758,4.629-2.179l3.125-3.783c2.1-2.542,1.755-6.303-0.772-8.42l-26.194-21.95l-3.183-19.669   c16.813-2.292,38.221-6.639,53.714-9.998c2.202,5.506,8.202,11.756,12.951,14.177l41.19,20.881l-0.098,24.014   c-0.007,1.73,0.733,3.38,2.032,4.525c1.103,0.972,2.516,1.499,3.968,1.499c0.258,0,0.517-0.017,0.775-0.051l7.773-1.014   c2.883-0.376,5.082-2.764,5.218-5.668l1.559-33.222c0.083-1.764-0.615-3.474-1.908-4.676l-12.416-11.541l26.501-5.656   l15.977,18.489c1.183,1.368,2.855,2.077,4.543,2.077c1.271,0,2.549-0.401,3.632-1.226l4.422-3.366   c1.303-0.992,2.144-2.474,2.327-4.102c0.184-1.628-0.306-3.26-1.355-4.517L222.418,334.215z" fill="#00a0c4"/>
	<path d="M308.683,91.127c24.788,0,44.954-20.166,44.954-44.954S333.471,1.219,308.683,1.219c-24.788,0-44.954,20.166-44.954,44.954   S283.895,91.127,308.683,91.127z" fill="#00a0c4"/>
</g>
<g>
</g>
<g>
</g>
<g>
</g>
<g>
</g>
<g>
</g>
<g>
</g>
<g>
</g>
<g>
</g>
<g>
</g>
<g>
</g>
<g>
</g>
<g>
</g>
<g>
</g>
<g>
</g>
<g>
</g>
</svg>
