<?xml version="1.0" encoding="iso-8859-1"?>
<!-- Generator: Adobe Illustrator 19.0.0, SVG Export Plug-In . SVG Version: 6.00 Build 0)  -->
<svg version="1.1" id="Capa_1" xmlns="http://www.w3.org/2000/svg" xmlns:xlink="http://www.w3.org/1999/xlink" x="0px" y="0px"
	 viewBox="0 0 512 512" style="enable-background:new 0 0 512 512;" xml:space="preserve">
<circle style="fill:#FFCF35;" cx="256" cy="256" r="256"/>
<path style="fill:#FFB344;" d="M512,256c0-17.924-1.85-35.416-5.355-52.3L381.828,78.883L259.226,400.25l93.021,93.021
	C445.93,455.231,512,363.338,512,256z"/>
<polygon style="fill:#4D4D4D;" points="118.295,219.307 129.445,78.883 243.111,140.001 "/>
<polygon style="fill:#333333;" points="392.978,219.307 381.828,78.883 268.162,140.001 "/>
<path style="fill:#4D4D4D;" d="M128.551,478.069C166.081,499.655,209.599,512,256,512c47.971,0,92.852-13.207,131.229-36.165
	l-38.538-130.511H163.394L128.551,478.069z"/>
<g>
	<path style="fill:#333333;" d="M387.229,475.835l-38.538-130.511h-92.739V512c0.016,0,0.032,0,0.048,0
		C303.971,512,348.852,498.793,387.229,475.835z"/>
	<path style="fill:#333333;" d="M255.637,393.229L255.637,393.229c-77.039,0-139.492-62.452-139.492-139.491v-9.912
		c0-77.039,62.452-109.405,139.491-109.405l0,0c77.039,0,139.491,32.366,139.491,109.405v9.912
		C395.128,330.776,332.676,393.229,255.637,393.229z"/>
</g>
<path style="fill:#1A1A1A;" d="M255.952,134.423v258.802c76.893-0.171,139.176-62.554,139.176-139.488v-9.912
	C395.128,166.893,332.846,134.511,255.952,134.423z"/>
<path style="fill:#999999;" d="M286.811,305.994c0,6.941-5.646,12.587-12.587,12.587s-12.587-5.646-12.587-12.587v-41.509h-12
	v41.509c0,6.941-5.646,12.587-12.587,12.587c-6.941,0-12.588-5.646-12.588-12.587h-12c0,13.557,11.03,24.587,24.588,24.587
	c7.416,0,14.075-3.3,18.587-8.509c4.512,5.209,11.171,8.509,18.587,8.509c13.558,0,24.587-11.03,24.587-24.587H286.811z"/>
<path style="fill:#808080;" d="M286.811,305.994c0,6.941-5.646,12.587-12.587,12.587s-12.587-5.646-12.587-12.587v-41.509h-5.684
	v57.933c4.504,5.006,11.023,8.163,18.271,8.163c13.558,0,24.587-11.03,24.587-24.587L286.811,305.994L286.811,305.994z"/>
<circle style="fill:#35CCFF;" cx="189.52" cy="246.76" r="12.946"/>
<circle style="fill:#00BAFF;" cx="321.76" cy="246.76" r="12.946"/>
<path style="fill:#B3B3B3;" d="M276.972,260.139l-15.797,15.816c-3.059,3.063-8.019,3.066-11.079,0.007L234.3,260.165
	c-4.935-4.935-1.44-13.381,5.539-13.385l31.593-0.019C278.412,246.756,281.907,255.197,276.972,260.139z"/>
<path style="fill:#999999;" d="M271.433,246.76l-15.48,0.009v31.469c1.898-0.078,3.774-0.833,5.223-2.284l15.796-15.815
	C281.907,255.197,278.412,246.756,271.433,246.76z"/>
<path style="fill:#F1333F;" d="M359.584,382.214c-29.365,19.687-65.811,31.354-105.307,31.354l0,0
	c-37.703,0-72.618-10.641-101.253-28.734l-6.62,25.221c29.794,20.751,67.215,33.123,107.874,33.123l0,0
	c42.804,0,82.034-13.697,112.543-36.461L359.584,382.214z"/>
<path style="fill:#AE283F;" d="M359.584,382.214c-28.948,19.408-64.782,31.014-103.632,31.339v29.609
	c42.151-0.353,80.758-13.978,110.867-36.444L359.584,382.214z"/>
<circle style="fill:#FFDC00;" cx="255.64" cy="443.18" r="19.13"/>
<path style="fill:#FFC000;" d="M274.769,443.179c0-10.46-8.397-18.946-18.816-19.116v38.233
	C266.372,462.125,274.769,453.639,274.769,443.179z"/>
<g>
</g>
<g>
</g>
<g>
</g>
<g>
</g>
<g>
</g>
<g>
</g>
<g>
</g>
<g>
</g>
<g>
</g>
<g>
</g>
<g>
</g>
<g>
</g>
<g>
</g>
<g>
</g>
<g>
</g>
</svg>
