<?xml version="1.0" encoding="iso-8859-1"?>
<!-- Generator: Adobe Illustrator 19.0.0, SVG Export Plug-In . SVG Version: 6.00 Build 0)  -->
<svg version="1.1" id="Capa_1" xmlns="http://www.w3.org/2000/svg" xmlns:xlink="http://www.w3.org/1999/xlink" x="0px" y="0px"
	 viewBox="0 0 512 512" style="enable-background:new 0 0 512 512;" xml:space="preserve">
<path style="fill:#7A6154;" d="M33.985,150.32c1.133-7.94,8.455-13.46,16.4-12.363c22.629,3.124,68.61,13.123,105.534,44.591
	L47.802,264.052C27.714,219.891,30.759,172.934,33.985,150.32z"/>
<path style="fill:#FABED5;" d="M55.56,171.472c0.334-4.521,4.578-7.72,9.016-6.796c16.57,3.448,38.072,9.909,58.728,21.981
	l-62.779,47.325C54.605,210.8,54.313,188.35,55.56,171.472z"/>
<path style="fill:#7A6154;" d="M392.389,109.572c2.439,9.637,6.766,18.903,12.92,27.456c21.935,30.458,33.219,54.421-8.051,107.788
	c-6.224,8.051-4.738,19.626,3.313,25.85c3.353,2.6,7.318,3.855,11.254,3.855c5.511,0,10.963-2.47,14.597-7.158
	c25.087-32.456,36.351-60.043,35.427-86.817c-0.893-25.91-13.332-46.581-26.633-65.052c-3.745-5.19-5.963-10.33-7.158-15.199
	l-15.952-18.472L392.389,109.572z"/>
<path style="fill:#F0F0F0;" d="M450.736,51.938c-10.119,4.337-18.843,15.018-22.226,27.195c-1.546,5.582-2.46,12.98-0.452,21.162
	c-18.341,11.274-35.668,9.276-35.668,9.276c-3.303-13.031-3.152-26.744,0.612-40.286c6.445-23.23,22.598-42.374,43.198-51.219
	c9.356-4.006,20.188,0.311,24.204,9.667S460.092,47.923,450.736,51.938z"/>
<path style="fill:#6B554A;" d="M400.571,270.667c3.353,2.6,7.318,3.855,11.254,3.855c5.511,0,10.962-2.47,14.597-7.158
	c14.437-18.677,24.287-35.741,29.88-51.966c-8.906-11.461-19.443-21.252-31.369-29.256c-0.765,15.643-8.608,34.02-27.674,58.674
	C391.034,252.868,392.52,264.443,400.571,270.667z"/>
<path style="fill:#7A6154;" d="M454.66,328.078c21.761-64.231-28.079-159.7-152.818-140.024l-47.946,4.817l-38.086,88.722
	L237,396.837l206.429-6.634L454.66,328.078z"/>
<path style="fill:#6B554A;" d="M317.41,329.589l0.751-3.804l2.15-22.635c0.466-4.898,0.702-9.885,0.702-14.821
	c0-12.108-1.405-24.114-4.185-35.8c7.467-23.789,9.883-47.165,10.029-66.943c-7.979,0.301-16.308,1.094-25.016,2.468l-47.946,4.817
	l-38.087,88.722L237,396.837l40.638-1.306C296.561,375.972,310.883,355.749,317.41,329.589z"/>
<path style="fill:#7A6154;" d="M299.538,150.32c-1.133-7.94-8.455-13.46-16.4-12.363c-22.629,3.124-68.61,13.123-105.534,44.591
	l108.118,81.504C305.81,219.891,302.764,172.934,299.538,150.32z"/>
<path style="fill:#FABED5;" d="M277.964,171.472c-0.334-4.521-4.578-7.72-9.016-6.796c-16.57,3.448-38.072,9.909-58.728,21.981
	l62.779,47.325C278.919,210.8,279.21,188.35,277.964,171.472z"/>
<path style="fill:#F0F0F0;" d="M203.342,164.331c-11.593-3.422-23.871-5.254-36.58-5.254s-24.987,1.832-36.58,5.254L38.11,300.785
	c6.265,65.537,61.472,116.795,128.651,116.795s122.386-51.258,128.651-116.795L203.342,164.331z"/>
<path style="fill:#7EDEE6;" d="M256.001,357.035L36.457,385.991l30.095,73.635c6.851,21.334,26.694,35.802,49.101,35.802h280.696
	c22.407,0,42.25-14.469,49.101-35.802l30.095-73.635L256.001,357.035z"/>
<path style="fill:#77CCD9;" d="M106.552,459.626l-30.095-73.635L276,359.672l-20-2.638L36.457,385.991l30.095,73.635
	c6.851,21.334,26.694,35.802,49.101,35.802h40C133.246,495.428,113.403,480.96,106.552,459.626z"/>
<path style="fill:#CBFDFF;" d="M475.544,328.078H36.457c-15.992,0-28.957,12.964-28.957,28.957l0,0
	c0,15.992,12.964,28.957,28.957,28.957h439.087c15.992,0,28.957-12.964,28.957-28.957l0,0
	C504.501,341.042,491.536,328.078,475.544,328.078z"/>
<path style="fill:#7EDEE6;" d="M47.501,357.035L47.501,357.035c0-15.992,12.964-28.957,28.957-28.957h-40
	c-15.992,0-28.957,12.964-28.957,28.957l0,0c0,15.992,12.964,28.957,28.957,28.957h40C60.465,385.991,47.501,373.027,47.501,357.035
	z"/>
<g>
	<path style="fill:#A18576;" d="M296.013,288.329c0,4.201-0.2,8.361-0.59,12.457h-0.011
		c-93.261,27.998-108.908-69.053-92.071-136.264v-0.19C256.917,180.105,296.013,229.657,296.013,288.329z"/>
	<path style="fill:#A18576;" d="M38.11,300.785H38.1c-0.39-4.096-0.59-8.255-0.59-12.457c0-58.671,39.097-108.224,92.672-123.997
		v0.19C147.019,231.732,131.371,328.783,38.11,300.785z"/>
</g>
<path d="M92.786,278.212c4.142,0,7.5-3.358,7.5-7.5v-13.389c0-4.142-3.358-7.5-7.5-7.5c-4.143,0-7.5,3.358-7.5,7.5v13.389
	C85.286,274.854,88.644,278.212,92.786,278.212z"/>
<path d="M240.736,249.823c-4.143,0-7.5,3.358-7.5,7.5v13.389c0,4.142,3.357,7.5,7.5,7.5c4.142,0,7.5-3.358,7.5-7.5v-13.389
	C248.236,253.181,244.878,249.823,240.736,249.823z"/>
<path d="M137.71,275.911c-3.119,2.726-3.437,7.464-0.711,10.583c4.388,5.02,10.841,7.899,17.705,7.899
	c4.32,0,8.476-1.142,12.057-3.239c3.582,2.097,7.738,3.239,12.058,3.239c6.863,0,13.316-2.879,17.704-7.899
	c2.727-3.119,2.408-7.857-0.71-10.583c-3.12-2.726-7.857-2.408-10.583,0.711c-1.54,1.761-3.876,2.771-6.411,2.771
	c-2.261,0-4.379-0.886-6.035-2.412c-1.769-1.628-3.478-2.916-6.013-2.916c-2.105,0-4.177,0.906-5.581,2.479
	c-1.655,1.853-4.006,2.849-6.486,2.849c-2.535,0-4.872-1.01-6.411-2.771C145.567,273.504,140.83,273.186,137.71,275.911z"/>
<path d="M475.543,320.544h-11.005c5.853-25.931,1.513-54.57-11.891-78.993c11.905-21.473,17.376-41.564,16.696-61.296
	c-0.962-27.909-14.047-49.741-28.047-69.183c-2.88-3.993-4.884-8.231-5.956-12.598c-1.376-5.609-1.243-11.454,0.395-17.367
	c2.757-9.923,9.972-18.889,17.957-22.311c12.986-5.565,19.179-21.058,13.602-34.054c-5.561-12.958-21.11-19.144-34.055-13.601
	c-22.676,9.735-40.42,30.709-47.465,56.101c-4.11,14.786-4.331,29.634-0.657,44.135c2.693,10.642,7.438,20.734,14.104,29.999
	c14.212,19.734,23.221,35.116,15.353,58.907c-22.075-14.608-49.619-22.385-80.65-22.385c-7.942,0-16.181,0.508-24.589,1.512
	c-0.21-12.104-1.277-22.498-2.373-30.184c-1.678-11.767-13.097-20.354-24.851-18.734c-16.493,2.278-48.354,8.641-79.528,25.817
	c-11.617-3.151-23.649-4.768-35.823-4.768c-12.172,0-24.205,1.616-35.822,4.768c-31.174-17.177-63.035-23.54-79.528-25.817
	c-11.828-1.631-23.163,6.906-24.851,18.734c-2.975,20.858-5.754,61.599,8.354,102.625c-3.229,11.736-4.904,23.952-4.904,36.443
	c0,4.389,0.209,8.819,0.623,13.167c0.005,0.055,0.021,0.105,0.028,0.16c0.62,6.403,1.704,12.768,3.223,19.024
	C14.979,321.971,0,337.764,0,357c0,18.34,13.614,33.553,31.266,36.081l28.237,69.088c7.959,24.373,30.485,40.725,56.149,40.725
	h280.696c25.664,0,48.19-16.352,56.149-40.725l28.237-69.088C498.386,390.553,512,375.34,512,357
	C512,336.898,495.646,320.544,475.543,320.544z M400.228,71.256c5.841-21.053,20.394-38.374,38.922-46.329
	c5.474-2.35,12.008,0.25,14.36,5.731c2.346,5.465-0.278,12.013-5.73,14.352c-12.126,5.197-22.527,17.79-26.5,32.087
	c-1.788,6.455-2.305,12.894-1.552,19.21c-0.028,0.014-0.056,0.03-0.083,0.044c-2.854,1.402-5.818,2.576-8.864,3.488
	c-4.001,1.198-8.136,1.967-12.305,2.237C396.771,91.928,397.356,81.586,400.228,71.256z M411.396,132.614
	c-3.613-5.022-6.546-10.322-8.769-15.835c0.654-0.072,1.308-0.157,1.959-0.249c3.317-0.469,6.588-1.179,9.808-2.103
	c3.22-0.924,6.355-2.088,9.416-3.448c0.03-0.013,0.059-0.024,0.089-0.038c1.419,3.066,3.166,6.042,5.23,8.903
	c12.613,17.516,24.399,37.021,25.224,60.928c0.51,14.793-3.125,30.042-11.082,46.345c-0.029-0.038-2.741-3.48-4.131-5.11
	c-3.731-4.375-7.752-8.452-12.058-12.209C440.09,176.799,427.685,155.23,411.396,132.614z M413.697,218.202
	c9.336,7.425,17.654,16.856,23.898,27.235c13.786,22.979,18.07,50.706,11.507,75.106h-98.656
	c1.281-14.604,8.298-27.503,20.956-38.417c11.473-9.893,23.457-14.39,23.561-14.428c3.892-1.42,5.894-5.726,4.474-9.617
	s-5.726-5.894-9.617-4.474c-0.577,0.211-14.295,5.294-27.806,16.81c-16.181,13.792-25.279,30.996-26.619,50.125h-35.721
	c0.03-0.122,0.053-0.246,0.083-0.368c2.5-10.437,3.757-21.15,3.757-31.882c0-12.171-1.648-24.598-4.899-36.423
	c2.369-6.893,4.341-13.938,5.872-21.064c0.003-0.016,0.007-0.032,0.01-0.048c2.567-11.917,4.077-24.035,4.637-36.209
	c8.507-1.097,16.822-1.651,24.792-1.651C365.541,192.898,392.996,201.74,413.697,218.202z M285.488,295.628
	c-22.843,5.306-47.263,2.534-62.507-16.996c-0.022-0.028-0.042-0.058-0.063-0.086c-20.203-26.403-20.551-64.664-15.579-96.027
	c0.45-2.839,0.955-5.67,1.53-8.487c0.158,0.058,0.314,0.123,0.473,0.182c32.774,12.239,59.236,38.725,71.503,71.486
	c5.76,15.382,8.338,32.266,7.507,48.819c-0.007,0.137-0.016,0.274-0.023,0.412C287.384,295.174,286.437,295.408,285.488,295.628z
	 M250.506,180.199c-0.926-0.717-1.858-1.429-2.801-2.123c7.354-2.43,14.972-4.467,22.778-6.087
	c0.688,9.325,0.761,18.506,0.221,27.459c-0.316-0.369-0.644-0.728-0.964-1.094C263.916,191.7,257.499,185.615,250.506,180.199z
	 M284.163,145.352c3.828-0.526,7.411,2.212,7.95,5.993c1.266,8.875,2.496,21.593,2.234,36.397c-0.002,0.047-0.008,0.093-0.009,0.14
	c-0.171,9.28-0.905,18.294-2.188,27.002c-0.6,4.073-1.337,8.125-2.196,12.151c-0.089,0.415-0.183,0.827-0.274,1.24
	c-1.771-3.613-3.716-7.151-5.817-10.617c2.221-14.977,2.769-30.69,1.581-46.772c-0.654-8.852-9.352-15.391-18.023-13.588
	c-12.42,2.585-24.414,6.169-35.722,10.646c-3.123-1.689-6.306-3.264-9.55-4.704C247.023,151.828,270.895,147.184,284.163,145.352z
	 M194.439,169.703c-4.079,19.322-5.567,39.388-3.804,59.078c2.173,24.235,9.269,44.665,20.52,59.081
	c12.938,16.575,31.51,25.336,53.729,25.335c6.818,0,13.608-0.809,20.286-2.151c0.416-0.083,0.83-0.161,1.248-0.249
	c-0.038,0.201-0.077,0.402-0.116,0.603c-0.572,2.941-2.092,9.013-2.128,9.145H49.338c-0.881-3.216-1.63-6.471-2.244-9.75
	c0.409,0.086,0.813,0.162,1.22,0.243c6.681,1.342,13.503,2.158,20.324,2.158c0.047,0,0.092-0.003,0.139-0.003
	c22.146-0.037,40.674-8.795,53.584-25.339c19.779-25.346,23.087-60.862,20.549-91.838c-0.147-1.796-3.399-26.416-3.829-26.312
	C157.128,165.504,176.396,165.505,194.439,169.703z M85.274,178.488c-7.838,5.832-15.047,12.506-21.483,19.856
	c-0.323,0.369-0.654,0.731-0.973,1.104c-0.54-8.953-0.465-18.135,0.229-27.464c7.801,1.624,15.417,3.662,22.771,6.092
	C85.634,178.211,85.457,178.352,85.274,178.488z M65.612,298.132c-6.295-0.262-12.543-1.312-18.669-2.763
	c-0.583-0.141-1.168-0.289-1.756-0.441c-0.118-2.209-0.177-4.428-0.177-6.634c0-33.305,14.366-66.332,38.745-89.031
	c11.661-10.857,25.496-19.456,40.419-25.047c0.165-0.062,0.328-0.129,0.494-0.19c0.058,0.274,0.12,0.551,0.176,0.825
	c6.565,32.024,7.21,68.95-10.263,97.831C104.269,289.726,85.302,298.952,65.612,298.132z M41.409,151.345
	c0.539-3.775,4.184-6.513,7.95-5.993c13.268,1.832,37.14,6.477,62.016,17.888c-3.244,1.44-6.427,3.015-9.55,4.704
	c-11.308-4.478-23.301-8.061-35.721-10.646c-8.728-1.814-17.368,4.689-18.024,13.587c-1.188,16.083-0.64,31.796,1.581,46.773
	c-2.103,3.47-4.05,7.013-5.823,10.63C36.866,196.906,39.083,167.649,41.409,151.345z M475.543,378.457h-52.075
	c-4.142,0-7.5,3.358-7.5,7.5s3.358,7.5,7.5,7.5h40.907l-25.87,63.297c-0.073,0.179-0.139,0.36-0.198,0.544
	c-5.877,18.3-22.739,30.596-41.959,30.596H115.652c-19.22,0-36.083-12.295-41.959-30.596c-0.06-0.184-0.125-0.365-0.198-0.544
	l-25.87-63.297H393.47c4.142,0,7.5-3.358,7.5-7.5s-3.358-7.5-7.5-7.5H36.457C24.625,378.457,15,368.831,15,357
	s9.625-21.457,21.457-21.457h439.087c11.832,0,21.457,9.625,21.457,21.457S487.375,378.457,475.543,378.457z"/>
<g>
</g>
<g>
</g>
<g>
</g>
<g>
</g>
<g>
</g>
<g>
</g>
<g>
</g>
<g>
</g>
<g>
</g>
<g>
</g>
<g>
</g>
<g>
</g>
<g>
</g>
<g>
</g>
<g>
</g>
</svg>
