<?xml version="1.0" encoding="iso-8859-1"?>
<!-- Generator: Adobe Illustrator 19.0.0, SVG Export Plug-In . SVG Version: 6.00 Build 0)  -->
<svg version="1.1" id="Capa_1" xmlns="http://www.w3.org/2000/svg" xmlns:xlink="http://www.w3.org/1999/xlink" x="0px" y="0px"
	 viewBox="0 0 512.1 512.1" style="enable-background:new 0 0 512.1 512.1;" xml:space="preserve">
<path style="fill:#DD2E44;" d="M256.05,436c-10.2,14.5-25.2,25.4-42.7,30.4v3c0,0,0,42.7,42.7,42.7s42.7-42.7,42.7-42.7v-3
	C281.25,461.4,266.25,450.5,256.05,436z"/>
<g>
	<path style="fill:#272B2B;" d="M192.95,16.8C159.35-9.7,0.05,15.2,0.05,142.2c0,56.9,0,199.1,42.7,199.1c8.8,0,18.5-6.1,28.7-16.5
		c-0.2-3.8-0.3-7.8-0.3-11.9C71.15,312.9,81.65,81.8,192.95,16.8z"/>
	<path style="fill:#272B2B;" d="M319.15,16.8c111.3,65,121.8,296.1,121.8,296.1c0,4.1-0.1,8.1-0.3,11.9c10.2,10.5,20,16.5,28.7,16.5
		c42.7,0,42.7-142.2,42.7-199.1C512.05,15.2,352.75-9.7,319.15,16.8z"/>
</g>
<path style="fill:#CCD6DD;" d="M319.15,16.8C300.95,6.2,280.05,0,256.05,0s-44.9,6.2-63.1,16.8c-111.3,65-121.8,296.1-121.8,296.1
	c0,4.1,0.1,8.1,0.3,11.9c3,60.7,29,79.3,44.7,85.1c-1.5-6-2.3-12.3-2.3-18.8c0-40.8,31.2-74.3,71.1-77.9v-0.4h142.2v0.4
	c39.9,3.6,71.1,37.1,71.1,77.9c0,6.5-0.8,12.8-2.3,18.8c15.7-5.8,41.6-24.4,44.7-85.1c0.2-3.8,0.3-7.8,0.3-11.9
	C440.95,312.9,430.45,81.8,319.15,16.8z M213.35,256c0,0,0,28.4-28.4,28.4s-28.4-28.4-28.4-28.4v-28.4c0,0,0-28.4,28.4-28.4
	s28.4,28.4,28.4,28.4V256z M355.65,256c0,0,0,28.4-28.4,28.4s-28.4-28.4-28.4-28.4v-28.4c0,0,0-28.4,28.4-28.4s28.4,28.4,28.4,28.4
	V256z"/>
<path style="fill:#8899A6;" d="M327.15,313.3v-0.4h-142.2v0.4c-39.9,3.6-71.1,37.1-71.1,77.9c0,6.5,0.8,12.8,2.3,18.8
	c8.4,34.1,39.2,59.5,75.9,59.5c7.4,0,14.6-1,21.3-3c17.5-5,32.5-15.9,42.7-30.4c10.2,14.5,25.2,25.4,42.7,30.4
	c6.8,1.9,13.9,3,21.3,3c36.7,0,67.5-25.3,75.9-59.5c1.5-6,2.3-12.3,2.3-18.8C398.25,350.3,367.05,316.8,327.15,313.3z M213.35,341.3
	c14.2-14.2,71.1-14.2,85.3,0s-28.4,56.9-42.7,56.9S199.15,355.6,213.35,341.3z"/>
<g>
	<path style="fill:#272B2B;" d="M184.95,199.1c-28.4,0-28.4,28.4-28.4,28.4V256c0,0,0,28.4,28.4,28.4s28.4-28.4,28.4-28.4v-28.4
		C213.35,227.6,213.35,199.1,184.95,199.1z"/>
	<path style="fill:#272B2B;" d="M327.15,199.1c-28.4,0-28.4,28.4-28.4,28.4V256c0,0,0,28.4,28.4,28.4s28.4-28.4,28.4-28.4v-28.4
		C355.65,227.6,355.65,199.1,327.15,199.1z"/>
	<path style="fill:#272B2B;" d="M256.05,398.2c14.2,0,56.9-42.7,42.7-56.9c-14.2-14.2-71.1-14.2-85.3,0
		C199.15,355.6,241.85,398.2,256.05,398.2z"/>
</g>
<g>
</g>
<g>
</g>
<g>
</g>
<g>
</g>
<g>
</g>
<g>
</g>
<g>
</g>
<g>
</g>
<g>
</g>
<g>
</g>
<g>
</g>
<g>
</g>
<g>
</g>
<g>
</g>
<g>
</g>
</svg>
