<?xml version="1.0" encoding="iso-8859-1"?>
<!-- Generator: Adobe Illustrator 19.0.0, SVG Export Plug-In . SVG Version: 6.00 Build 0)  -->
<svg version="1.1" id="Capa_1" xmlns="http://www.w3.org/2000/svg" xmlns:xlink="http://www.w3.org/1999/xlink" x="0px" y="0px"
	 viewBox="0 0 512 512" style="enable-background:new 0 0 512 512;" xml:space="preserve">
<path style="fill:#F3CE72;" d="M218.166,119.225L17.889,212.616L16.293,58.131c-0.455-44.009,51.136-68.067,84.557-39.43
	L218.166,119.225z"/>
<path style="opacity:0.03;enable-background:new    ;" d="M218.166,119.225L17.889,212.616L16.293,58.131
	c-0.455-44.009,51.136-68.067,84.557-39.43L218.166,119.225z"/>
<path style="fill:#E978A0;" d="M170.314,141.539L65.741,190.302L54.645,72.348c-1.673-17.786,19.894-27.843,32.444-15.129
	L170.314,141.539z"/>
<path style="fill:#F3CE72;" d="M293.834,119.225l200.277,93.391l1.596-154.485c0.455-44.009-51.136-68.066-84.557-39.429
	L293.834,119.225z"/>
<path style="opacity:0.03;enable-background:new    ;" d="M293.834,119.225l200.277,93.391l1.596-154.485
	c0.455-44.009-51.136-68.066-84.557-39.429L293.834,119.225z"/>
<path style="fill:#E978A0;" d="M341.686,141.539l104.572,48.763l11.097-117.955c1.673-17.786-19.894-27.843-32.444-15.129
	L341.686,141.539z"/>
<path style="fill:#F3CE72;" d="M512,291.203c0-141.385-114.615-199.056-256-199.056S0,149.818,0,291.203
	s179.281,214.526,256,214.526S512,432.587,512,291.203z"/>
<path style="opacity:0.6;fill:#FFFFFF;enable-background:new    ;" d="M442.043,262.783c-21.559,0-41.077,8.739-55.205,22.866
	c-0.415,0.415-0.853,0.877-1.306,1.37c-2.228,2.338-4.322,4.803-6.249,7.403c-6.416,7.923-15.05,18.937-26.132,30.088
	c-4.47,4.498-12.058,2.993-14.505-2.857c-7.593-18.159-18.615-33.537-31.936-44.66c-15.44-12.893-25.883-31.092-27.324-51.156
	c-0.917-12.782-11.905-22.488-24.775-21.742c-11.491,0.666-20.729,9.86-21.966,21.304c-2.167,20.036-11.806,38.631-27.291,51.54
	c-13.365,11.141-24.421,26.562-32.027,44.778c-2.432,5.825-10.029,7.272-14.478,2.795c-11.083-11.152-19.717-22.165-26.133-30.089
	c-1.926-2.599-4.021-5.065-6.249-7.403c-0.453-0.493-0.891-0.955-1.306-1.37c-14.128-14.128-33.646-22.866-55.205-22.866
	c-30.201,0-56.378,17.161-69.362,42.252C11.79,437.352,181.824,505.728,256,505.728s244.21-68.377,255.406-200.693
	C498.421,279.944,472.245,262.783,442.043,262.783z"/>
<path style="opacity:0.08;enable-background:new    ;" d="M310.553,473.818c-76.719,0-256-73.141-256-214.526
	c0-64.213,23.645-111.155,62.699-143.272C46.703,144.824,0,200.957,0,291.203c0,141.385,179.281,214.526,256,214.526
	c40.926,0,111.037-20.817,167.55-61.701C381.361,463.803,338.937,473.818,310.553,473.818z"/>
<path style="fill:#485358;" d="M213.121,316.158L213.121,316.158c3.991,7.243,9.413,13.599,15.936,18.683l0,0
	c15.841,12.344,38.044,12.344,53.885,0l0,0c6.523-5.083,11.945-11.439,15.936-18.683l0,0c4.609-8.364-1.442-18.606-10.991-18.606
	h-63.774C214.563,297.552,208.513,307.794,213.121,316.158z"/>
<path style="opacity:0.15;enable-background:new    ;" d="M291.971,324.758c-14.623,11.395-35.12,11.395-49.742,0l0,0
	c-6.022-4.693-11.027-10.56-14.711-17.246c-1.815-3.295-1.835-6.903-0.58-9.96h-2.825c-9.55,0-15.6,10.242-10.992,18.606
	c3.991,7.243,9.413,13.599,15.936,18.683l0,0c15.841,12.344,38.044,12.344,53.885,0l0,0c4.683-3.649,8.786-7.964,12.212-12.782
	C294.125,322.992,293.071,323.901,291.971,324.758z"/>
<path style="fill:#E978A0;" d="M256,415.251c-11.978,0-23.185-3.256-32.817-8.91v37.463c0,18.124,14.693,32.817,32.817,32.817
	s32.817-14.693,32.817-32.817v-37.463C279.185,411.995,267.977,415.251,256,415.251z"/>
<path style="opacity:0.1;enable-background:new    ;" d="M256,448.981c-4.142,0-7.5-3.357-7.5-7.5v-26.229
	c0-4.143,3.358-7.5,7.5-7.5s7.5,3.357,7.5,7.5v26.229C263.5,445.624,260.142,448.981,256,448.981z"/>
<g>
	<path style="fill:#485358;" d="M140.066,247.433c-4.142,0-7.5-3.357-7.5-7.5v-19.244c0-4.143,3.358-7.5,7.5-7.5s7.5,3.357,7.5,7.5
		v19.244C147.566,244.075,144.208,247.433,140.066,247.433z"/>
	<path style="fill:#485358;" d="M371.934,247.433c-4.142,0-7.5-3.357-7.5-7.5v-19.244c0-4.143,3.358-7.5,7.5-7.5s7.5,3.357,7.5,7.5
		v19.244C379.434,244.075,376.076,247.433,371.934,247.433z"/>
	<path style="fill:#485358;" d="M256,422.752c-20.949,0-40.873-9.076-54.665-24.9c-2.721-3.123-2.396-7.86,0.727-10.582
		c3.123-2.721,7.859-2.395,10.582,0.727c10.942,12.555,26.745,19.756,43.356,19.756s32.414-7.201,43.356-19.756
		c2.721-3.123,7.459-3.447,10.582-0.727c3.122,2.722,3.448,7.459,0.727,10.582C296.873,413.676,276.949,422.752,256,422.752z"/>
</g>
<g>
</g>
<g>
</g>
<g>
</g>
<g>
</g>
<g>
</g>
<g>
</g>
<g>
</g>
<g>
</g>
<g>
</g>
<g>
</g>
<g>
</g>
<g>
</g>
<g>
</g>
<g>
</g>
<g>
</g>
</svg>
