<?xml version="1.0" encoding="iso-8859-1"?>
<!-- Generator: Adobe Illustrator 19.0.0, SVG Export Plug-In . SVG Version: 6.00 Build 0)  -->
<svg version="1.1" id="Capa_1" xmlns="http://www.w3.org/2000/svg" xmlns:xlink="http://www.w3.org/1999/xlink" x="0px" y="0px"
	 viewBox="0 0 512 512" style="enable-background:new 0 0 512 512;" xml:space="preserve">
<circle style="fill:#DE1F4B;" cx="256" cy="256" r="256"/>
<path style="fill:#B70E38;" d="M512,256c0-20.55-2.437-40.527-7.01-59.676L387,78.333L128.333,423.667l84.729,84.729
	C227.025,510.754,241.366,512,256,512C397.385,512,512,397.385,512,256z"/>
<rect x="128.33" y="78.33" style="fill:#FFFFFF;" width="258.67" height="345.33"/>
<rect x="255.95" y="78.33" style="fill:#E0E0E0;" width="131.05" height="345.33"/>
<g>
	<polygon style="fill:#00DE7E;" points="177.75,190.392 147.929,160.571 162.071,146.429 177.75,162.108 221.929,117.929 
		236.071,132.071 	"/>
	<polygon style="fill:#00DE7E;" points="177.75,292.642 147.929,262.821 162.071,248.679 177.75,264.358 221.929,220.179 
		236.071,234.321 	"/>
</g>
<rect x="246" y="150" style="fill:#999999;" width="117" height="14"/>
<rect x="304.76" y="150" style="fill:#808080;" width="58.24" height="14"/>
<rect x="246" y="252.5" style="fill:#999999;" width="117" height="14"/>
<rect x="304.76" y="252.5" style="fill:#808080;" width="58.24" height="14"/>
<rect x="246" y="201.25" style="fill:#999999;" width="117" height="14"/>
<rect x="304.76" y="201.25" style="fill:#808080;" width="58.24" height="14"/>
<path style="fill:#D59134;" d="M342.09,377.693c0,20.21-16.383,5.698-36.593,5.698s-36.593,14.512-36.593-5.698
	s16.383-36.593,36.593-36.593S342.09,357.483,342.09,377.693z"/>
<path style="fill:#AA712D;" d="M305.497,341.1c-0.247,0-0.49,0.014-0.736,0.019v42.288c0.246-0.004,0.489-0.016,0.736-0.016
	c20.21,0,36.593,14.512,36.593-5.698C342.09,357.483,325.707,341.1,305.497,341.1z"/>
<ellipse style="fill:#D59134;" cx="305.5" cy="321.6" rx="10" ry="12.915"/>
<path style="fill:#AA712D;" d="M305.497,308.686c-0.248,0-0.492,0.025-0.736,0.048v25.734c0.244,0.023,0.487,0.048,0.736,0.048
	c5.524,0,10.003-5.782,10.003-12.915S311.022,308.686,305.497,308.686z"/>
<ellipse style="fill:#D59134;" cx="258.65" cy="354.52" rx="10" ry="12.915"/>
<g>
	<ellipse style="fill:#AA712D;" cx="352.35" cy="354.52" rx="10" ry="12.915"/>
	<ellipse style="fill:#AA712D;" cx="333.23" cy="331.48" rx="10" ry="12.915"/>
</g>
<ellipse style="fill:#D59134;" cx="277.77" cy="331.48" rx="10" ry="12.915"/>
<g>
</g>
<g>
</g>
<g>
</g>
<g>
</g>
<g>
</g>
<g>
</g>
<g>
</g>
<g>
</g>
<g>
</g>
<g>
</g>
<g>
</g>
<g>
</g>
<g>
</g>
<g>
</g>
<g>
</g>
</svg>
